<svg id="Слой_1" data-name="Слой 1" xmlns="http://www.w3.org/2000/svg" viewBox="0 0 118 18"><defs><style>.cls-1{fill:#fb8349;}</style></defs><path class="cls-1" d="M14.33,2.05a7.56,7.56,0,0,1,2.23,5.87V17.8H13.81V13H2.7V17.8H0V7.92A7.56,7.56,0,0,1,2.23,2.05a8.52,8.52,0,0,1,6-2A8.61,8.61,0,0,1,14.33,2.05Zm-.52,8.71V7.69a5.32,5.32,0,0,0-1.47-4.07A5.75,5.75,0,0,0,8.25,2.24,5.73,5.73,0,0,0,4.17,3.62,5.32,5.32,0,0,0,2.7,7.69v3.07Z"/><path class="cls-1" d="M37.58.2,29.14,17.8H26.41L17.94.2h3l6.93,14.46L34.83.2Z"/><path class="cls-1" d="M53.29,17.8l-4.16-5.41c-.51,0-.91,0-1.21,0H43.16V17.8H40.41V.2h7.51a9.5,9.5,0,0,1,5.89,1.64A5.32,5.32,0,0,1,56,6.34a5.47,5.47,0,0,1-1.1,3.46,6.11,6.11,0,0,1-3.13,2.09l4.56,5.91ZM51.83,9.28A3.45,3.45,0,0,0,53.2,6.34a3.41,3.41,0,0,0-1.37-2.93,6.64,6.64,0,0,0-4-1H43.16v7.92h4.68A6.64,6.64,0,0,0,51.83,9.28Z"/><path class="cls-1" d="M63.85,16.83a9.09,9.09,0,0,1-3.67-3.23A8.28,8.28,0,0,1,58.84,9a8.28,8.28,0,0,1,1.34-4.6,9.16,9.16,0,0,1,3.67-3.23,12.32,12.32,0,0,1,10.48,0A9,9,0,0,1,78,4.39,8.31,8.31,0,0,1,79.31,9,8.31,8.31,0,0,1,78,13.61a9,9,0,0,1-3.66,3.22,12.32,12.32,0,0,1-10.48,0Zm9.06-1.95a6.72,6.72,0,0,0,2.67-2.42,6.37,6.37,0,0,0,1-3.46,6.37,6.37,0,0,0-1-3.46,6.72,6.72,0,0,0-2.67-2.42,8,8,0,0,0-3.81-.88,8.21,8.21,0,0,0-3.83.88,6.68,6.68,0,0,0-2.7,2.42,6.37,6.37,0,0,0-1,3.46,6.37,6.37,0,0,0,1,3.46,6.68,6.68,0,0,0,2.7,2.42,8.21,8.21,0,0,0,3.83.88A8,8,0,0,0,72.91,14.88Z"/><path class="cls-1" d="M95.24,17.8l-4.15-5.41c-.51,0-.92,0-1.21,0H85.12V17.8H82.37V.2h7.51a9.52,9.52,0,0,1,5.89,1.64,5.32,5.32,0,0,1,2.14,4.5,5.47,5.47,0,0,1-1.1,3.46,6.15,6.15,0,0,1-3.13,2.09l4.56,5.91ZM93.79,9.28a3.48,3.48,0,0,0,1.37-2.94,3.43,3.43,0,0,0-1.37-2.93,6.64,6.64,0,0,0-4-1H85.12v7.92H89.8A6.64,6.64,0,0,0,93.79,9.28Z"/><path class="cls-1" d="M115.77,2.05A7.56,7.56,0,0,1,118,7.92V17.8h-2.75V13H104.14V17.8h-2.7V7.92a7.56,7.56,0,0,1,2.23-5.87,8.52,8.52,0,0,1,6-2A8.61,8.61,0,0,1,115.77,2.05Zm-.52,8.71V7.69a5.32,5.32,0,0,0-1.47-4.07,6.74,6.74,0,0,0-8.17,0,5.32,5.32,0,0,0-1.47,4.07v3.07Z"/></svg>